<svg xmlns="http://www.w3.org/2000/svg" width="256" height="256" viewBox="0 0 100 100">
    <rect width="100" height="100" rx="20" fill="#9997ac"></rect>
    <path
        d="M17.11 55.99L17.11 74.46Q16.63 74.62 15.82 74.83Q15.01 75.03 14.04 75.03L14.04 75.03Q10.47 75.03 10.47 72.03L10.47 72.03L10.47 28.94Q10.47 27.64 11.12 26.96Q11.77 26.27 13.14 25.86L13.14 25.86Q15.49 25.13 18.94 24.81Q22.38 24.48 25.62 24.48L25.62 24.48Q35.82 24.48 40.81 28.58Q45.79 32.67 45.79 40.20L45.79 40.20Q45.79 45.79 42.91 49.59Q40.04 53.40 34.20 55.02L34.20 55.02Q36.23 57.61 38.25 60.21Q40.28 62.80 42.10 65.11Q43.92 67.41 45.34 69.28Q46.76 71.14 47.57 72.19L47.57 72.19Q47.25 73.57 46.15 74.38Q45.06 75.19 43.92 75.19L43.92 75.19Q42.55 75.19 41.66 74.54Q40.77 73.89 39.79 72.52L39.79 72.52L27.97 55.99L17.11 55.99ZM17.03 50.49L26.35 50.49Q32.34 50.49 35.74 47.89Q39.15 45.30 39.15 40.20L39.15 40.20Q39.15 35.10 35.58 32.54Q32.02 29.99 25.38 29.99L25.38 29.99Q23.19 29.99 20.96 30.20Q18.73 30.40 17.03 30.72L17.03 30.72L17.03 50.49ZM71.79 70.17L71.79 70.17Q77.22 70.17 80.01 67.70Q82.80 65.23 82.80 61.34L82.80 61.34Q82.80 57.94 80.66 55.83Q78.51 53.73 73.89 52.35L73.89 52.35L66.85 50.24Q61.66 48.70 58.71 45.71Q55.75 42.71 55.75 37.61L55.75 37.61Q55.75 34.53 56.93 32.06Q58.10 29.59 60.29 27.89Q62.47 26.19 65.51 25.25Q68.55 24.32 72.36 24.32L72.36 24.32Q75.60 24.32 78.39 24.85Q81.19 25.38 83.25 26.31Q85.32 27.24 86.45 28.37Q87.58 29.51 87.58 30.72L87.58 30.72Q87.58 31.86 87.02 32.67Q86.45 33.48 85.56 33.96L85.56 33.96Q83.45 32.34 80.09 31.13Q76.73 29.91 72.60 29.91L72.60 29.91Q67.82 29.91 65.11 31.94Q62.39 33.96 62.39 37.61L62.39 37.61Q62.39 40.44 64.34 42.22Q66.28 44.01 70.82 45.30L70.82 45.30L75.76 46.76Q82.16 48.62 85.84 51.98Q89.53 55.35 89.53 61.34L89.53 61.34Q89.53 67.74 84.91 71.71Q80.29 75.68 71.79 75.68L71.79 75.68Q68.06 75.68 65.03 75.03Q61.99 74.38 59.84 73.33Q57.69 72.27 56.52 71.02Q55.35 69.76 55.35 68.55L55.35 68.55Q55.35 67.17 56.20 66.24Q57.05 65.31 58.18 64.90L58.18 64.90Q59.07 65.79 60.37 66.73Q61.66 67.66 63.36 68.43Q65.07 69.20 67.17 69.68Q69.28 70.17 71.79 70.17Z"
        fill="#000000"></path>
</svg>